<?xml version="1.0" encoding="UTF-8" standalone="no"?><!DOCTYPE svg PUBLIC "-//W3C//DTD SVG 1.1//EN" "http://www.w3.org/Graphics/SVG/1.1/DTD/svg11.dtd"><svg width="100%" height="100%" viewBox="0 0 1945 1945" version="1.1" xmlns="http://www.w3.org/2000/svg" xmlns:xlink="http://www.w3.org/1999/xlink" xml:space="preserve" xmlns:serif="http://www.serif.com/" style="fill-rule:evenodd;clip-rule:evenodd;stroke-linejoin:round;stroke-miterlimit:2;"><g id="logo-dark"><path d="M663.161,1074.99l-118.261,118.262c-59.363,59.362 -131.827,88.696 -217.393,88c-85.566,-0.695 -158.262,-30.957 -218.089,-90.783c-60.29,-60.29 -90.551,-132.986 -90.783,-218.088c-0.232,-85.102 30.029,-158.03 90.783,-218.784c60.291,-60.291 133.103,-90.668 218.437,-91.131c85.334,-0.464 157.682,28.985 217.045,88.348l118.261,118.262l158.311,-158.312l102.958,102.958l-158.312,158.311l205.915,205.914l427.133,-427.133c59.363,-59.363 131.827,-88.696 217.393,-88.001c85.565,0.696 158.262,30.957 218.088,90.784c60.29,60.29 90.551,132.986 90.783,218.088c0.232,85.102 -30.029,158.03 -90.783,218.784c-60.29,60.29 -133.102,90.667 -218.436,91.131c-85.334,0.464 -157.682,-28.986 -217.045,-88.348l-74.26,-74.26l102.958,-102.957l72.172,72.172c32,32.001 70.609,47.885 115.827,47.653c45.218,-0.232 83.827,-16.348 115.827,-48.348c32,-32 48,-70.493 48,-115.479c0,-44.986 -16,-83.479 -48,-115.479c-32,-32 -70.725,-48.001 -116.175,-48.001c-45.449,0 -83.942,15.769 -115.479,47.305l-425.046,425.046l118.262,118.262c59.362,59.363 88.812,131.711 88.348,217.045c-0.464,85.334 -30.841,158.146 -91.131,218.436c-60.754,60.754 -133.682,91.015 -218.784,90.783c-85.102,-0.232 -157.798,-30.493 -218.088,-90.783c-59.827,-59.826 -90.088,-132.523 -90.784,-218.088c-0.695,-85.566 28.638,-158.03 88.001,-217.393l118.262,-118.262l-205.915,-205.914Zm-102.957,-102.957l-116.175,-116.175c-32,-32 -70.609,-47.884 -115.827,-47.652c-45.217,0.231 -83.826,16.348 -115.826,48.348c-32.001,32 -48.001,70.493 -48.001,115.479c0,44.986 16,83.479 48.001,115.479c32,32 70.725,48 116.174,48c45.45,0 83.943,-15.768 115.479,-47.305l116.175,-116.174Zm411.829,411.829l-116.175,116.174c-31.536,31.537 -47.305,70.03 -47.305,115.479c0,45.45 16.001,84.175 48.001,116.175c32,32 70.493,48 115.479,48c44.986,0 83.479,-16 115.479,-48c32,-32 48.116,-70.609 48.348,-115.827c0.232,-45.218 -15.652,-83.827 -47.653,-115.827l-116.174,-116.174Z" style="fill:#4bb3fd;"/><path d="M663.161,1086.78l-112.369,112.369c-60.993,60.993 -135.437,91.156 -223.353,90.441c-87.853,-0.714 -162.487,-31.798 -223.913,-93.223c-61.913,-61.913 -92.986,-136.567 -93.224,-223.959c-0.238,-87.401 30.829,-162.304 93.224,-224.699c61.904,-61.904 136.665,-93.096 224.283,-93.572c87.672,-0.476 161.994,29.8 222.983,90.789l112.369,112.369l158.311,-158.311l114.743,114.743c-0,-0 -158.312,158.311 -158.311,158.311l194.129,194.129l421.24,-421.241c60.993,-60.993 135.438,-91.155 223.353,-90.441c87.854,0.715 162.488,31.798 223.914,93.224c61.912,61.913 92.985,136.566 93.224,223.958c0.238,87.401 -30.829,162.304 -93.224,224.7c-61.905,61.904 -136.665,93.095 -224.284,93.571c-87.672,0.477 -161.994,-29.8 -222.983,-90.789l-80.152,-80.152l114.743,-114.742l78.065,78.065c30.36,30.36 66.991,45.432 109.891,45.212c42.934,-0.22 79.593,-15.524 109.977,-45.908c30.369,-30.368 45.56,-66.895 45.56,-109.586c-0,-42.692 -15.191,-79.219 -45.56,-109.587c-30.376,-30.376 -67.138,-45.559 -110.282,-45.559c-43.126,-0 -79.662,14.939 -109.586,44.864c-0,-0 -419.154,419.153 -419.154,419.153l112.369,112.369c60.989,60.989 91.266,135.311 90.789,222.983c-0.476,87.619 -31.667,162.379 -93.571,224.284c-62.396,62.395 -137.299,93.462 -224.7,93.224c-87.392,-0.239 -162.045,-31.312 -223.958,-93.224c-61.426,-61.426 -92.509,-136.06 -93.224,-223.914c-0.714,-87.915 29.448,-162.36 90.441,-223.353c0,0 112.369,-112.369 112.369,-112.369l-194.129,-194.129Zm0,-11.785l205.915,205.914l-118.262,118.262c-59.363,59.363 -88.696,131.827 -88.001,217.393c0.696,85.565 30.957,158.262 90.784,218.088c60.29,60.29 132.986,90.551 218.088,90.783c85.102,0.232 158.03,-30.029 218.784,-90.783c60.29,-60.29 90.667,-133.102 91.131,-218.436c0.464,-85.334 -28.986,-157.682 -88.348,-217.045l-118.262,-118.262l425.046,-425.046c31.537,-31.536 70.03,-47.305 115.479,-47.305c45.45,0 84.175,16.001 116.175,48.001c32,32 48,70.493 48,115.479c0,44.986 -16,83.479 -48,115.479c-32,32 -70.609,48.116 -115.827,48.348c-45.218,0.232 -83.827,-15.652 -115.827,-47.653l-72.172,-72.172l-102.958,102.957l74.26,74.26c59.363,59.362 131.711,88.812 217.045,88.348c85.334,-0.464 158.146,-30.841 218.436,-91.131c60.754,-60.754 91.015,-133.682 90.783,-218.784c-0.232,-85.102 -30.493,-157.798 -90.783,-218.088c-59.826,-59.827 -132.523,-90.088 -218.088,-90.784c-85.566,-0.695 -158.03,28.638 -217.393,88.001l-427.133,427.133l-205.915,-205.914l158.312,-158.311l-102.958,-102.958l-158.311,158.312l-118.261,-118.262c-59.363,-59.363 -131.711,-88.812 -217.045,-88.348c-85.334,0.463 -158.146,30.84 -218.437,91.131c-60.754,60.754 -91.015,133.682 -90.783,218.784c0.232,85.102 30.493,157.798 90.783,218.088c59.827,59.826 132.523,90.088 218.089,90.783c85.566,0.696 158.03,-28.638 217.393,-88l118.261,-118.262Zm-102.957,-102.957l-116.175,116.174c-31.536,31.537 -70.029,47.305 -115.479,47.305c-45.449,0 -84.174,-16 -116.174,-48c-32.001,-32 -48.001,-70.493 -48.001,-115.479c0,-44.986 16,-83.479 48.001,-115.479c32,-32 70.609,-48.117 115.826,-48.348c45.218,-0.232 83.827,15.652 115.827,47.652l116.175,116.175Zm-11.785,-0l-110.282,-110.282c-30.361,-30.361 -66.991,-45.432 -109.892,-45.212c-42.934,0.22 -79.593,15.523 -109.977,45.907c-30.368,30.368 -45.559,66.895 -45.559,109.587c-0,42.691 15.191,79.218 45.559,109.586c30.377,30.377 67.139,45.56 110.282,45.56c43.127,-0 79.662,-14.939 109.587,-44.864l110.282,-110.282Zm423.614,411.829l116.174,116.174c32.001,32 47.885,70.609 47.653,115.827c-0.232,45.218 -16.348,83.827 -48.348,115.827c-32,32 -70.493,48 -115.479,48c-44.986,0 -83.479,-16 -115.479,-48c-32,-32 -48.001,-70.725 -48.001,-116.175c0,-45.449 15.769,-83.942 47.305,-115.479l116.175,-116.174Zm-0,11.785l-110.282,110.282c-29.925,29.924 -44.864,66.46 -44.864,109.586c-0,43.144 15.183,79.906 45.559,110.282c30.368,30.369 66.895,45.56 109.587,45.56c42.691,-0 79.218,-15.191 109.586,-45.56c30.384,-30.384 45.688,-67.043 45.908,-109.977c0.22,-42.9 -14.852,-79.531 -45.212,-109.891l-110.282,-110.282Z" style="fill:#fff;"/><path d="M1074.98,663.153l158.319,158.319l-102.957,102.958l-257.667,-257.668l0.157,-0.157l-3.601,-3.601l-0.157,0.157l-118.262,-118.261c-59.363,-59.363 -88.812,-131.711 -88.348,-217.045c0.463,-85.334 30.84,-158.146 91.131,-218.437c60.754,-60.754 133.682,-91.015 218.784,-90.783c85.102,0.232 157.798,30.493 218.088,90.783c59.826,59.827 90.088,132.523 90.783,218.089c0.696,85.566 -28.638,158.03 -88,217.393l-117.896,117.895l-0.008,-0.008l-0.366,0.366Zm-102.494,-103.226l-0.089,-0.089l115.808,-115.809c31.537,-31.536 47.305,-70.029 47.305,-115.479c0,-45.449 -16,-84.174 -48,-116.174c-32,-32.001 -70.493,-48.001 -115.479,-48.001c-44.986,0 -83.479,16 -115.479,48.001c-32,32 -48.117,70.609 -48.348,115.826c-0.232,45.218 15.652,83.827 47.652,115.827l116.264,116.264l0.366,-0.366Z" style="fill:#6432bd;"/><path d="M870.951,676.821l-0.112,-0.426l-3.332,-3.332l-0.157,0.157l-122.429,-122.428c-60.989,-60.989 -91.265,-135.311 -90.789,-222.983c0.476,-87.618 31.668,-162.379 93.572,-224.283c62.395,-62.395 137.298,-93.462 224.699,-93.224c87.392,0.238 162.046,31.311 223.959,93.224c61.425,61.426 92.509,136.06 93.223,223.913c0.715,87.916 -29.448,162.36 -90.441,223.353l-112.369,112.369l158.311,158.311l-114.742,114.743l-259.393,-259.394Zm0.658,-11.442l-1.369,3.304l0.046,0.111l1.388,-3.35l1.16,1.161l-0.157,0.157l2.23,2.231l-3.853,1.653l0.214,0.514c1.046,-0.258 2.377,-0.841 3.699,-2.108l3.541,3.542l-5.5,2.359c0.663,0.047 3.125,0.033 5.56,-2.3l251.776,251.777l102.957,-102.958l-158.319,-158.319l0.366,-0.366l0.008,0.008l117.896,-117.895c59.362,-59.363 88.696,-131.827 88,-217.393c-0.695,-85.566 -30.957,-158.262 -90.783,-218.089c-60.29,-60.29 -132.986,-90.551 -218.088,-90.783c-85.102,-0.232 -158.03,30.029 -218.784,90.783c-60.291,60.291 -90.668,133.103 -91.131,218.437c-0.464,85.334 28.985,157.682 88.348,217.045l118.262,118.261l0.157,-0.157l2.376,2.375Zm100.879,-105.452l-0.366,0.366l-116.264,-116.264c-32,-32 -47.884,-70.609 -47.652,-115.827c0.231,-45.217 16.348,-83.826 48.348,-115.826c32,-32.001 70.493,-48.001 115.479,-48.001c44.986,0 83.479,16 115.479,48.001c32,32 48,70.725 48,116.174c0,45.45 -15.768,83.943 -47.305,115.479l-115.808,115.809l0.089,0.089Zm-0.455,-11.508l110.282,-110.282c29.925,-29.925 44.864,-66.46 44.864,-109.587c-0,-43.143 -15.183,-79.905 -45.56,-110.282c-30.368,-30.368 -66.895,-45.559 -109.586,-45.559c-42.692,-0 -79.219,15.191 -109.587,45.559c-30.384,30.384 -45.687,67.043 -45.907,109.977c-0.22,42.901 14.851,79.531 45.212,109.892l110.282,110.282Zm-102.624,122.493l-0.036,-0.136l-0.186,0.45l0.046,0.111l0.176,-0.425Zm-0.002,0.44l0.118,0.004l-0.013,-0.049l-0.105,0.045Z" style="fill:#fff;"/></g></svg>