<?xml version="1.0" encoding="UTF-8" standalone="no"?><!DOCTYPE svg PUBLIC "-//W3C//DTD SVG 1.1//EN" "http://www.w3.org/Graphics/SVG/1.1/DTD/svg11.dtd"><svg width="100%" height="100%" viewBox="0 0 1907 1907" version="1.1" xmlns="http://www.w3.org/2000/svg" xmlns:xlink="http://www.w3.org/1999/xlink" xml:space="preserve" xmlns:serif="http://www.serif.com/" style="fill-rule:evenodd;clip-rule:evenodd;stroke-linejoin:round;stroke-miterlimit:2;"><g id="logo"><path d="M644.527,1056.36l-118.261,118.262c-59.363,59.362 -131.827,88.696 -217.393,88c-85.566,-0.695 -158.262,-30.956 -218.088,-90.783c-60.291,-60.29 -90.552,-132.986 -90.784,-218.088c-0.232,-85.102 30.03,-158.03 90.784,-218.784c60.29,-60.291 133.102,-90.668 218.436,-91.131c85.334,-0.464 157.682,28.985 217.045,88.348l118.261,118.262l158.312,-158.312l102.957,102.958l-158.312,158.311l205.915,205.914l427.133,-427.133c59.363,-59.363 131.827,-88.696 217.393,-88.001c85.566,0.696 158.262,30.957 218.088,90.784c60.29,60.29 90.552,132.986 90.783,218.088c0.232,85.102 -30.029,158.03 -90.783,218.784c-60.29,60.29 -133.102,90.667 -218.436,91.131c-85.334,0.464 -157.682,-28.986 -217.045,-88.348l-74.259,-74.26l102.957,-102.957l72.172,72.173c32.001,32 70.609,47.884 115.827,47.652c45.218,-0.232 83.827,-16.348 115.827,-48.348c32,-32 48,-70.493 48,-115.479c0,-44.986 -16,-83.479 -48,-115.479c-32,-32 -70.725,-48 -116.175,-48c-45.449,-0 -83.942,15.768 -115.479,47.304l-425.046,425.046l118.262,118.262c59.362,59.363 88.812,131.711 88.348,217.045c-0.464,85.334 -30.841,158.146 -91.131,218.436c-60.754,60.754 -133.682,91.015 -218.784,90.783c-85.102,-0.231 -157.798,-30.493 -218.088,-90.783c-59.827,-59.826 -90.088,-132.522 -90.784,-218.088c-0.695,-85.566 28.638,-158.03 88.001,-217.393l118.262,-118.262l-205.915,-205.914Zm-102.957,-102.957l-116.175,-116.175c-32,-32 -70.609,-47.884 -115.826,-47.652c-45.218,0.232 -83.827,16.348 -115.827,48.348c-32,32 -48.001,70.493 -48.001,115.479c0,44.986 16.001,83.479 48.001,115.479c32,32 70.725,48 116.174,48c45.45,0 83.943,-15.768 115.479,-47.304l116.175,-116.175Zm411.829,411.829l-116.175,116.174c-31.536,31.537 -47.304,70.03 -47.304,115.479c-0,45.45 16,84.175 48,116.175c32,32 70.493,48 115.479,48c44.986,0 83.479,-16 115.479,-48c32,-32 48.116,-70.609 48.348,-115.827c0.232,-45.218 -15.652,-83.826 -47.652,-115.827l-116.175,-116.174Z" style="fill:#4bb3fd;"/><path d="M1056.35,644.519l158.319,158.32l-102.957,102.957l-257.667,-257.668l0.157,-0.157l-3.601,-3.601l-0.157,0.157l-118.262,-118.261c-59.363,-59.363 -88.812,-131.711 -88.348,-217.045c0.463,-85.334 30.84,-158.146 91.131,-218.436c60.754,-60.754 133.682,-91.016 218.784,-90.784c85.102,0.232 157.798,30.493 218.088,90.784c59.827,59.826 90.088,132.522 90.783,218.088c0.696,85.566 -28.638,158.03 -88,217.393l-117.896,117.895l-0.008,-0.008l-0.366,0.366Zm-102.494,-103.225l-0.089,-0.09l115.809,-115.809c31.536,-31.536 47.304,-70.029 47.304,-115.479c0,-45.449 -16,-84.174 -48,-116.174c-32,-32 -70.493,-48.001 -115.479,-48.001c-44.986,0 -83.479,16.001 -115.479,48.001c-32,32 -48.116,70.609 -48.348,115.827c-0.232,45.217 15.652,83.826 47.652,115.826l116.264,116.264l0.366,-0.365Z" style="fill:#6432bd;"/></g></svg>